# xmcd
#
# Track frame offsets:
#	150
#	21858
#	39125
#	54544
#	68823
#	85599
#	100050
#	115182
#	130469
#	147010
#	166142
#	183883
#	198821
#	216841
#	232853
#
# Disc length: 3326 seconds
#
# Revision: 0
# Processed by: cddbd v1.5.1PL2 Copyright (c) Steve Scherf et al.
# Submitted via: dBpowerAMP V4.0
#
DISCID=ba0cfc0f
DTITLE=Boot Scooters - Line Dance Party 
DYEAR=1900
DGENRE=
TTITLE0=Not having you around
TTITLE1=Guitars Cadillacs
TTITLE2=Can't make it on my own
TTITLE3=Down at the local barn
TTITLE4=A hell of a team
TTITLE5=Another link in your chain
TTITLE6=The vegetable song
TTITLE7=Cold lonely days
TTITLE8=Line dance party
TTITLE9=Second time love
TTITLE10=Be my man tonight
TTITLE11=The outback club
TTITLE12=It can't be love
TTITLE13=Cow skin jeans
TTITLE14=Loosen up
EXTD=
EXTT0=
EXTT1=
EXTT2=
EXTT3=
EXTT4=
EXTT5=
EXTT6=
EXTT7=
EXTT8=
EXTT9=
EXTT10=
EXTT11=
EXTT12=
EXTT13=
EXTT14=
PLAYORDER=
